<svg width="80" height="40" viewBox="0 0 80 40" fill="none" xmlns="http://www.w3.org/2000/svg">
<g id="logoBWAPd">
<path id="Union" fill-rule="evenodd" clip-rule="evenodd" d="M23.5803 26.0205C25.3945 24.1559 26.3016 21.6236 26.3016 18.4236C26.3016 15.3496 25.4071 12.9433 23.6181 11.2047C21.8543 9.46614 19.4984 8.59685 16.5504 8.59685C15.4417 8.59685 14.4968 8.74803 13.7157 9.05039V1L8.5 1.26457V27.4567C10.2134 28.3638 12.8087 28.8173 16.2858 28.8173C19.3598 28.8173 21.7913 27.885 23.5803 26.0205ZM16.0591 24.5086C15.1772 24.5086 14.3961 24.3827 13.7157 24.1307V13.4724C14.5724 13.0945 15.3661 12.9055 16.0968 12.9055C19.3724 12.9055 21.0102 14.8079 21.0102 18.6126C21.0102 22.5433 19.3598 24.5086 16.0591 24.5086ZM62.5814 28.8173C65.9074 28.8173 68.6539 28.263 70.8208 27.1543V16.6473C70.8208 14.052 70.1153 12.0614 68.7043 10.6756C67.3184 9.28979 65.2523 8.59688 62.5058 8.59688C59.961 8.59688 57.7814 8.97483 55.9673 9.73074L56.9121 13.8126C58.3736 13.2079 60.0366 12.9055 61.9011 12.9055C64.4712 12.9055 65.7562 14.0394 65.7562 16.3071V17.2142C64.4964 17.0126 63.3751 16.9118 62.3925 16.9118C60.0995 16.937 58.2602 17.4788 56.8744 18.537C55.4885 19.5953 54.7956 21.0441 54.7956 22.8835C54.7956 24.6473 55.4633 26.0835 56.7988 27.1921C58.1594 28.2756 60.0869 28.8173 62.5814 28.8173ZM65.7562 24.5465C65.1011 24.8992 64.2192 25.0756 63.1106 25.0756C61.0192 25.0756 59.9736 24.2693 59.9736 22.6567C59.9736 21.0189 61.0066 20.2 63.0728 20.2C63.9295 20.2 64.824 20.3008 65.7562 20.5024V24.5465ZM26.6862 38.4871L26.8861 37.5776C27.5457 37.8308 28.1687 37.9574 28.755 37.9574C29.7078 37.9574 30.1842 37.611 30.1842 36.918C30.1842 36.5582 30.0609 36.2917 29.8144 36.1185C29.5745 35.9386 29.1681 35.7554 28.5951 35.5688C27.9688 35.3622 27.499 35.1091 27.1859 34.8092C26.8794 34.5027 26.7262 34.083 26.7262 33.55C26.7262 32.937 26.9294 32.4672 27.3358 32.1408C27.7422 31.8076 28.3119 31.6411 29.0448 31.6411C29.6845 31.6411 30.2741 31.751 30.8138 31.9709L30.6039 32.8404C30.0576 32.6538 29.5579 32.5605 29.1048 32.5605C28.2253 32.5605 27.7855 32.8803 27.7855 33.52C27.7855 33.8398 27.8855 34.0796 28.0854 34.2396C28.2853 34.3995 28.6251 34.5594 29.1048 34.7193C29.3846 34.8126 29.6145 34.8958 29.7944 34.9691C29.9743 35.0424 30.1642 35.1424 30.3641 35.269C30.5706 35.3889 30.7305 35.5222 30.8438 35.6687C30.9571 35.8087 31.0503 35.9852 31.1236 36.1984C31.2036 36.405 31.2436 36.6415 31.2436 36.908C31.2436 37.561 31.017 38.054 30.5639 38.3872C30.1109 38.7136 29.5212 38.8769 28.795 38.8769C27.9821 38.8769 27.2792 38.747 26.6862 38.4871ZM58.3567 38.4871L58.5566 37.5776C59.2162 37.8308 59.8392 37.9574 60.4255 37.9574C61.3783 37.9574 61.8547 37.611 61.8547 36.918C61.8547 36.5582 61.7314 36.2917 61.4849 36.1185C61.245 35.9386 60.8386 35.7554 60.2656 35.5688C59.6393 35.3622 59.1696 35.1091 58.8564 34.8092C58.5499 34.5027 58.3967 34.083 58.3967 33.55C58.3967 32.937 58.5999 32.4672 59.0063 32.1408C59.4127 31.8076 59.9824 31.6411 60.7153 31.6411C61.355 31.6411 61.9446 31.751 62.4843 31.9709L62.2744 32.8404C61.7281 32.6538 61.2284 32.5605 60.7753 32.5605C59.8958 32.5605 59.4561 32.8803 59.4561 33.52C59.4561 33.8398 59.556 34.0796 59.7559 34.2396C59.9558 34.3995 60.2956 34.5594 60.7753 34.7193C61.0551 34.8126 61.285 34.8958 61.4649 34.9691C61.6448 35.0424 61.8347 35.1424 62.0346 35.269C62.2411 35.3889 62.401 35.5222 62.5143 35.6687C62.6276 35.8087 62.7208 35.9852 62.7941 36.1984C62.8741 36.405 62.9141 36.6415 62.9141 36.908C62.9141 37.561 62.6875 38.054 62.2345 38.3872C61.7814 38.7136 61.1917 38.8769 60.4655 38.8769C59.6526 38.8769 58.9497 38.747 58.3567 38.4871ZM66.4426 38.4871L66.6425 37.5776C67.3021 37.8308 67.9251 37.9574 68.5114 37.9574C69.4642 37.9574 69.9406 37.611 69.9406 36.918C69.9406 36.5582 69.8173 36.2917 69.5708 36.1185C69.331 35.9386 68.9245 35.7554 68.3515 35.5688C67.7252 35.3622 67.2555 35.1091 66.9423 34.8092C66.6358 34.5027 66.4826 34.083 66.4826 33.55C66.4826 32.937 66.6858 32.4672 67.0922 32.1408C67.4987 31.8076 68.0684 31.6411 68.8013 31.6411C69.4409 31.6411 70.0306 31.751 70.5702 31.9709L70.3604 32.8404C69.814 32.6538 69.3143 32.5605 68.8612 32.5605C67.9817 32.5605 67.542 32.8803 67.542 33.52C67.542 33.8398 67.6419 34.0796 67.8418 34.2396C68.0417 34.3995 68.3815 34.5594 68.8612 34.7193C69.1411 34.8126 69.3709 34.8958 69.5508 34.9691C69.7307 35.0424 69.9206 35.1424 70.1205 35.269C70.3271 35.3889 70.487 35.5222 70.6002 35.6687C70.7135 35.8087 70.8068 35.9852 70.8801 36.1984C70.96 36.405 71 36.6415 71 36.908C71 37.561 70.7735 38.054 70.3204 38.3872C69.8673 38.7136 69.2777 38.8769 68.5514 38.8769C67.7385 38.8769 67.0356 38.747 66.4426 38.4871ZM54.7023 38.757V37.8575H51.5442V35.6287H54.2526V34.7293H51.5442V32.6605H54.7023V31.761H50.5048V38.757H54.7023ZM41.612 38.757H40.6425V31.761H41.6519C42.5781 33.48 43.7441 35.3223 45.1499 37.2878C45.1299 37.0279 45.1199 36.7248 45.1199 36.3783V31.761H46.0894V38.757H45.07C44.2571 37.6642 43.5908 36.7348 43.0711 35.9686C42.5514 35.2023 42.0517 34.3828 41.572 33.51C41.5986 33.8231 41.612 34.2062 41.612 34.6593V38.757ZM35.1819 31.761V38.757H36.2213V31.761H35.1819ZM17.418 31.761V36.0285C17.418 37.9274 18.3041 38.8769 20.0764 38.8769C21.8487 38.8769 22.7349 37.9274 22.7349 36.0285V31.761H21.6855V35.9586C21.6855 37.2845 21.1491 37.9474 20.0764 37.9474C18.997 37.9474 18.4574 37.2845 18.4574 35.9586V31.761H17.418ZM10.758 38.757H8.67919V31.761H10.5181C12.2838 31.761 13.1666 32.3573 13.1666 33.5499C13.1666 34.2695 12.8801 34.7759 12.3071 35.0691C13.0533 35.3689 13.4265 35.9319 13.4265 36.7581C13.4265 38.0907 12.537 38.757 10.758 38.757ZM9.69861 32.6605V34.7992H10.9579C11.7308 34.7992 12.1172 34.4294 12.1172 33.6899C12.1172 33.3034 11.9773 33.0369 11.6975 32.8903C11.4243 32.7371 11.0345 32.6605 10.5281 32.6605H9.69861ZM9.69861 35.6088V37.8575H10.688C11.2544 37.8575 11.6775 37.7775 11.9573 37.6176C12.2438 37.4577 12.3871 37.1679 12.3871 36.7481C12.3871 35.9885 11.9007 35.6088 10.9279 35.6088H9.69861ZM37.3829 28.3638H32.3562C30.3404 25.0882 28.9294 22.0646 28.1231 19.2929C27.3168 16.4961 26.7499 13.0819 26.4223 9.05041H31.5625C31.89 14.7449 33.0869 19.8347 35.153 24.3197C36.8412 21.0945 37.9121 17.4158 38.3656 13.2835C38.164 11.948 38.0128 10.537 37.9121 9.05041H42.7499C43.1026 14.6441 44.2365 19.7339 46.1514 24.3197C48.3184 19.885 49.5152 14.7953 49.742 9.05041H54.9199C54.5672 12.9055 53.9624 16.2441 53.1058 19.0662C52.2491 21.8882 50.8758 24.9874 48.9861 28.3638H43.7703C42.3341 25.5669 41.2254 23.1354 40.4443 21.0693C39.6128 23.6898 38.5924 26.1213 37.3829 28.3638Z" fill="#0B49E0"/>
</g>
</svg>
